<svg width="137" height="40" viewBox="0 0 137 40" fill="none" xmlns="http://www.w3.org/2000/svg">
<path d="M17.5089 3.23692L18.1485 10.2977C18.2076 10.9495 18.237 11.2754 18.3412 11.5734C18.4335 11.8376 18.5686 12.0848 18.7411 12.3052C18.9357 12.5539 19.1939 12.7548 19.7106 13.1565L25.3071 17.5089L18.2463 18.1485C17.5945 18.2075 17.2686 18.237 16.9706 18.3412C16.7063 18.4335 16.4591 18.5685 16.2387 18.7411C15.99 18.9356 15.7892 19.1939 15.3875 19.7106L11.0351 25.307L10.3955 18.2463C10.3365 17.5944 10.3069 17.2686 10.2028 16.9705C10.1105 16.7063 9.97539 16.4591 9.80292 16.2387C9.60838 15.99 9.35005 15.7892 8.83343 15.3874L3.23695 11.0351L10.2977 10.3955C10.9495 10.3364 11.2754 10.3069 11.5735 10.2028C11.8376 10.1104 12.0849 9.97535 12.3053 9.80289C12.5539 9.60833 12.7548 9.35002 13.1566 8.83341L17.5089 3.23692Z" fill="#EA565B"/>
<path d="M133.772 18.3076C134.855 18.3076 135.648 18.513 136.152 18.9236C136.675 19.3343 136.936 19.8943 136.936 20.6036C136.936 21.0143 136.871 21.4156 136.74 21.8076L132.344 36.0876C132.288 36.3116 132.26 36.5076 132.26 36.6756C132.26 36.9183 132.307 37.1143 132.4 37.2636C132.493 37.3943 132.624 37.525 132.792 37.6556C132.923 37.7863 133.016 37.8983 133.072 37.9916C133.128 38.0663 133.137 38.169 133.1 38.2996C133.007 38.5423 132.82 38.7196 132.54 38.8316C132.26 38.9436 131.831 38.9996 131.252 38.9996H124.868C124.383 38.9996 124.028 38.9249 123.804 38.7756C123.58 38.6076 123.505 38.393 123.58 38.1316C123.655 37.9076 123.851 37.7116 124.168 37.5436C124.448 37.3943 124.681 37.2169 124.868 37.0116C125.055 36.8063 125.213 36.4796 125.344 36.0316L129.6 22.0596C129.656 21.8916 129.684 21.7516 129.684 21.6396C129.684 21.4343 129.628 21.2663 129.516 21.1356C129.423 21.005 129.292 20.8743 129.124 20.7436C128.937 20.5943 128.797 20.4636 128.704 20.3516C128.629 20.2396 128.62 20.0903 128.676 19.9036C128.788 19.4743 129.376 19.1009 130.44 18.7836C131.504 18.4663 132.615 18.3076 133.772 18.3076Z" fill="black"/>
<path d="M118.664 24.0479C121.035 24.0479 122.752 24.4305 123.816 25.1959C124.88 25.9425 125.412 26.9039 125.412 28.0799C125.412 28.4345 125.375 28.7612 125.3 29.0599C125.02 30.2919 124.236 31.1785 122.948 31.7199C121.679 32.2425 120.176 32.5039 118.44 32.5039C117.563 32.5039 116.742 32.4479 115.976 32.3359C115.958 33.3065 116.219 33.9879 116.76 34.3799C117.302 34.7719 118.058 34.9679 119.028 34.9679C119.476 34.9679 119.906 34.9212 120.316 34.8279C120.727 34.7159 121.25 34.5572 121.884 34.3519C122.407 34.1652 122.762 34.0719 122.948 34.0719C123.154 34.0719 123.256 34.1932 123.256 34.4359C123.275 35.0892 123.032 35.7799 122.528 36.5079C122.024 37.2172 121.278 37.8239 120.288 38.3279C119.299 38.8319 118.104 39.0839 116.704 39.0839C114.632 39.0839 112.934 38.5612 111.608 37.5159C110.283 36.4705 109.62 34.9492 109.62 32.9519C109.62 32.3919 109.695 31.7385 109.844 30.9919C110.311 28.6959 111.328 26.9692 112.896 25.8119C114.483 24.6359 116.406 24.0479 118.664 24.0479ZM116.172 30.6559C116.247 30.6745 116.35 30.6839 116.48 30.6839C117.264 30.6839 117.862 30.3199 118.272 29.5919C118.683 28.8639 118.879 28.0519 118.86 27.1559C118.842 26.6332 118.692 26.3719 118.412 26.3719C118.207 26.3719 117.964 26.5399 117.684 26.8759C117.404 27.1932 117.124 27.6785 116.844 28.3319C116.583 28.9852 116.359 29.7599 116.172 30.6559Z" fill="black"/>
<path d="M104.503 24.0756C105.884 24.0756 106.986 24.5703 107.807 25.5596C108.647 26.549 109.067 27.8556 109.067 29.4796C109.067 30.3196 108.964 31.141 108.759 31.9436C108.162 34.3516 107.135 36.1716 105.679 37.4036C104.242 38.6356 102.58 39.2516 100.695 39.2516C99.6309 39.2516 98.7069 39.0743 97.9229 38.7196C97.1576 38.3463 96.5416 37.8236 96.0749 37.1516L95.0669 38.0196C94.6749 38.3556 94.2923 38.6076 93.9189 38.7756C93.5456 38.9249 93.1163 38.9996 92.6309 38.9996H91.3989C90.9323 38.9996 90.5683 38.9063 90.3069 38.7196C90.0643 38.5143 89.9429 38.2249 89.9429 37.8516C89.9429 37.6836 89.9709 37.4876 90.0269 37.2636L94.7029 22.0596C94.7589 21.8916 94.7869 21.7516 94.7869 21.6396C94.7869 21.3223 94.5909 21.0236 94.1989 20.7436C94.0123 20.5756 93.8816 20.445 93.8069 20.3516C93.7323 20.2396 93.7229 20.0996 93.7789 19.9316C93.9096 19.5023 94.4976 19.1289 95.5429 18.8116C96.6069 18.4756 97.7176 18.3076 98.8749 18.3076C99.9576 18.3076 100.751 18.5223 101.255 18.9516C101.778 19.3623 102.039 19.9223 102.039 20.6316C102.039 21.0236 101.974 21.4156 101.843 21.8076L100.667 25.6156C101.75 24.5889 103.028 24.0756 104.503 24.0756ZM101.339 31.7756C101.712 30.5063 101.899 29.4796 101.899 28.6956C101.899 27.837 101.647 27.4076 101.143 27.4076C100.695 27.4076 100.275 27.641 99.8829 28.1076L98.0629 34.0436L97.8949 34.5756C97.8016 34.8556 97.7549 35.145 97.7549 35.4436C97.7549 36.097 98.0629 36.4236 98.6789 36.4236C99.1269 36.4236 99.5563 36.097 99.9669 35.4436C100.378 34.7903 100.835 33.5676 101.339 31.7756Z" fill="black"/>
<path d="M83.2308 24.1875C85.7695 24.1875 87.6361 24.7008 88.8308 25.7275C90.0441 26.7542 90.6508 28.0982 90.6508 29.7595C90.6508 30.3195 90.5761 30.9448 90.4268 31.6355C90.0721 33.1662 89.4095 34.5102 88.4388 35.6675C87.4681 36.8062 86.2735 37.6928 84.8548 38.3275C83.4548 38.9435 81.9335 39.2515 80.2908 39.2515C77.6961 39.2515 75.7735 38.7382 74.5228 37.7115C73.2908 36.6662 72.6748 35.2848 72.6748 33.5675C72.6748 32.9888 72.7495 32.3448 72.8988 31.6355C73.2535 30.1795 73.9255 28.8915 74.9148 27.7715C75.9228 26.6328 77.1455 25.7555 78.5828 25.1395C80.0388 24.5048 81.5881 24.1875 83.2308 24.1875ZM83.1468 26.6795C82.7548 26.6795 82.3348 27.0342 81.8868 27.7435C81.4575 28.4342 80.9441 29.7502 80.3468 31.6915C79.7495 33.6328 79.4508 34.9955 79.4508 35.7795C79.4508 36.1902 79.5161 36.4702 79.6468 36.6195C79.7775 36.7502 79.9548 36.8155 80.1788 36.8155C80.5708 36.8528 80.9721 36.5168 81.3828 35.8075C81.8121 35.0982 82.3441 33.7168 82.9788 31.6635C83.5575 29.8528 83.8468 28.5368 83.8468 27.7155C83.8468 27.3235 83.7815 27.0528 83.6508 26.9035C83.5388 26.7542 83.3708 26.6795 83.1468 26.6795Z" fill="black"/>
<path d="M69.928 24.1875C70.9733 24.1875 71.8039 24.5048 72.4199 25.1395C73.0546 25.7742 73.372 26.5582 73.372 27.4915C73.372 27.8462 73.3346 28.1728 73.26 28.4715C73.0733 29.2368 72.7186 29.8248 72.1959 30.2355C71.6733 30.6462 71.048 30.8515 70.32 30.8515C69.6106 30.8515 69.0693 30.6835 68.6959 30.3475C68.3413 30.0115 68.024 29.5635 67.7439 29.0035C67.5946 28.6862 67.4546 28.4528 67.324 28.3035C67.1933 28.1542 67.044 28.0795 66.8759 28.0795C66.6893 28.0795 66.5213 28.1542 66.372 28.3035C66.2413 28.4528 66.12 28.7142 66.0079 29.0875L63.852 36.0875C63.8146 36.1808 63.796 36.3208 63.796 36.5075C63.796 36.7502 63.8613 36.9555 63.992 37.1235C64.1413 37.2728 64.3373 37.4222 64.58 37.5715C64.804 37.7208 64.9533 37.8422 65.028 37.9355C65.1026 38.0288 65.1306 38.1502 65.1119 38.2995C65.0746 38.5422 64.9346 38.7195 64.692 38.8315C64.468 38.9435 64.076 38.9995 63.516 38.9995H56.348C55.8626 38.9995 55.5173 38.9248 55.312 38.7755C55.088 38.6075 55.004 38.3928 55.06 38.1315C55.1346 37.9075 55.3306 37.7115 55.6479 37.5435C55.9279 37.3942 56.1613 37.2168 56.348 37.0115C56.5346 36.8062 56.6933 36.4795 56.824 36.0315L59.316 27.9395C59.3533 27.8462 59.372 27.7155 59.372 27.5475C59.372 27.3422 59.3253 27.1835 59.232 27.0715C59.1573 26.9595 59.0266 26.8195 58.84 26.6515C58.6533 26.5022 58.5226 26.3715 58.448 26.2595C58.3733 26.1475 58.364 25.9982 58.42 25.8115C58.532 25.3822 59.12 25.0088 60.184 24.6915C61.248 24.3555 62.3586 24.1875 63.516 24.1875C64.2813 24.1875 64.916 24.3648 65.42 24.7195C65.924 25.0555 66.2506 25.5408 66.4 26.1755C67.296 24.8502 68.472 24.1875 69.928 24.1875Z" fill="black"/>
<path d="M56.6647 24.5517C57.0194 24.5517 57.2901 24.6264 57.4767 24.7757C57.6821 24.9251 57.7847 25.1304 57.7847 25.3917C57.7847 25.4664 57.7661 25.5971 57.7287 25.7837C57.4861 26.6051 56.9261 27.0157 56.0487 27.0157H54.4247L52.3247 33.9317C52.2314 34.2117 52.1847 34.5011 52.1847 34.7997C52.1847 35.1357 52.2781 35.3691 52.4647 35.4997C52.6514 35.6304 52.9127 35.6957 53.2487 35.6957C53.5474 35.6957 53.9207 35.6584 54.3687 35.5837C54.5927 35.5277 54.7887 35.4997 54.9567 35.4997C55.0874 35.4997 55.1807 35.5464 55.2367 35.6397C55.3114 35.7144 55.3487 35.8171 55.3487 35.9477C55.3674 36.3211 55.0874 36.7784 54.5087 37.3197C53.9487 37.8424 53.1834 38.2997 52.2127 38.6917C51.2421 39.0651 50.1687 39.2517 48.9927 39.2517C47.7234 39.2517 46.7061 38.9624 45.9407 38.3837C45.1754 37.8051 44.7927 37.0117 44.7927 36.0037C44.7927 35.5371 44.8674 35.0891 45.0167 34.6597L46.8087 29.1157C46.9021 28.7984 46.9487 28.5464 46.9487 28.3597C46.9487 27.9864 46.8554 27.6691 46.6687 27.4077C46.5007 27.1464 46.2581 26.8757 45.9407 26.5957C45.6607 26.3344 45.4647 26.1197 45.3527 25.9517C45.2407 25.7651 45.2127 25.5504 45.2687 25.3077C45.3434 25.0651 45.5021 24.8784 45.7447 24.7477C45.9874 24.6171 46.3701 24.5517 46.8927 24.5517H48.4607L50.2247 22.7877C50.8407 22.1717 51.4007 21.7424 51.9047 21.4997C52.4274 21.2571 53.0994 21.1357 53.9207 21.1357C55.0967 21.1357 55.6847 21.5837 55.6847 22.4797C55.6847 22.7597 55.6474 23.0211 55.5727 23.2637L55.1807 24.5517H56.6647Z" fill="black"/>
<path d="M36.7631 23.9355C38.3124 23.9355 39.6471 24.0755 40.7671 24.3555C41.9058 24.6355 42.7738 25.0275 43.3711 25.5315C43.9871 26.0355 44.2951 26.6049 44.2951 27.2395C44.2951 27.8929 44.0338 28.4249 43.5111 28.8355C43.0071 29.2462 42.2978 29.4515 41.3831 29.4515C40.4498 29.4515 39.6564 29.2182 39.0031 28.7515C38.3684 28.2849 38.0511 27.6969 38.0511 26.9875C38.0511 26.7449 38.0884 26.5115 38.1631 26.2875C37.8271 26.1942 37.5284 26.1475 37.2671 26.1475C36.8004 26.1475 36.4084 26.2595 36.0911 26.4835C35.7924 26.7075 35.6524 27.0249 35.6711 27.4355C35.6711 27.9209 35.9138 28.3315 36.3991 28.6675C36.8844 29.0035 37.6684 29.4235 38.7511 29.9275C39.6844 30.3382 40.4498 30.7209 41.0471 31.0755C41.6631 31.4115 42.1764 31.8409 42.5871 32.3635C43.0164 32.8862 43.2311 33.5022 43.2311 34.2115C43.2311 34.3609 43.1938 34.6409 43.1191 35.0515C42.8204 36.3022 41.9898 37.2915 40.6271 38.0195C39.2644 38.7475 37.4724 39.1115 35.2511 39.1115C32.7498 39.1115 30.7618 38.7755 29.2871 38.1035C27.8311 37.4315 27.1031 36.5075 27.1031 35.3315C27.1031 34.5289 27.3458 33.9222 27.8311 33.5115C28.3164 33.1009 28.9604 32.8955 29.7631 32.8955C30.6964 32.8955 31.4898 33.1849 32.1431 33.7635C32.8151 34.3422 33.1511 35.0795 33.1511 35.9755C33.1511 36.2182 33.1231 36.4702 33.0671 36.7315C33.5151 36.8435 33.9444 36.8995 34.3551 36.8995C34.8404 36.8995 35.2418 36.7689 35.5591 36.5075C35.8764 36.2462 36.0351 35.8822 36.0351 35.4155C36.0164 34.9862 35.8018 34.6222 35.3911 34.3235C34.9804 34.0062 34.3271 33.6329 33.4311 33.2035C32.5911 32.8115 31.9004 32.4475 31.3591 32.1115C30.8178 31.7569 30.3511 31.3182 29.9591 30.7955C29.5858 30.2729 29.3991 29.6569 29.3991 28.9475C29.3991 27.4169 30.0338 26.2035 31.3031 25.3075C32.5911 24.3929 34.4111 23.9355 36.7631 23.9355Z" fill="black"/>
<path d="M25.1083 35.6953C25.0336 35.938 24.9963 36.1806 24.9963 36.4233C24.9963 36.6286 25.0243 36.806 25.0803 36.9553C25.1363 37.086 25.1923 37.198 25.2483 37.2913C25.323 37.366 25.3696 37.422 25.3883 37.4593C25.575 37.646 25.6683 37.8326 25.6683 38.0193C25.6683 38.0566 25.6496 38.15 25.6123 38.2993C25.5376 38.5606 25.3696 38.7473 25.1083 38.8593C24.8656 38.9526 24.483 38.9993 23.9603 38.9993H17.3243C16.9323 38.9993 16.6243 38.934 16.4003 38.8033C16.195 38.6726 16.0923 38.4953 16.0923 38.2713C16.0923 38.1593 16.1203 38.038 16.1763 37.9073C16.2323 37.758 16.307 37.646 16.4003 37.5713C16.5123 37.478 16.6616 37.3753 16.8483 37.2633C17.147 37.0953 17.3896 36.9086 17.5763 36.7033C17.763 36.498 17.9216 36.162 18.0523 35.6953L18.7803 33.2873H14.4123L13.6563 34.8833C13.339 35.574 13.1803 36.1153 13.1803 36.5073C13.1803 36.7313 13.2176 36.918 13.2923 37.0673C13.367 37.198 13.479 37.338 13.6283 37.4873C13.759 37.6366 13.843 37.7673 13.8803 37.8793C13.9363 37.9726 13.9456 38.1033 13.9083 38.2713C13.8336 38.5513 13.675 38.7473 13.4323 38.8593C13.2083 38.9526 12.8443 38.9993 12.3403 38.9993H8.16829C7.73896 38.9993 7.41229 38.9246 7.18829 38.7753C6.96429 38.6073 6.85229 38.3926 6.85229 38.1313C6.85229 37.8326 6.96429 37.5993 7.18829 37.4313C7.39363 37.2446 7.71096 37.0486 8.14029 36.8433C8.70029 36.5633 9.14829 36.2926 9.48429 36.0313C9.82029 35.7513 10.1096 35.3686 10.3523 34.8833L15.3363 24.5513C16.1016 22.946 16.9976 21.7886 18.0243 21.0793C19.0696 20.3513 20.4416 19.9873 22.1403 19.9873C24.0443 19.9873 25.519 20.3793 26.5643 21.1633C27.6096 21.9286 28.1323 23.002 28.1323 24.3833C28.1323 24.962 28.039 25.5593 27.8523 26.1753L25.1083 35.6953ZM19.6203 30.4873L21.1043 25.5593C21.179 25.3353 21.2163 25.102 21.2163 24.8593C21.2163 24.5046 21.1136 24.2433 20.9083 24.0753C20.7216 23.8886 20.451 23.7953 20.0963 23.7953C19.6483 23.7953 19.2656 23.926 18.9483 24.1873C18.631 24.4486 18.3136 24.9153 17.9963 25.5873L15.7003 30.4873H19.6203Z" fill="black"/>
</svg>
